<svg xmlns="http://www.w3.org/2000/svg" xmlns:xlink="http://www.w3.org/1999/xlink" version="1.1" id="레이어_1" x="0px" y="0px" viewBox="0 0 30 30" style="enable-background:new 0 0 30 30;" xml:space="preserve">
<style type="text/css">
	.st0{fill:#FFFFFF;}
</style>
<g>
	<g>
		<path class="st0" d="M6.08,19.94c2.97,3.54,6.55,6.32,10.63,8.29c1.55,0.73,3.63,1.6,5.95,1.75C22.8,29.99,22.93,30,23.08,30    c1.55,0,2.8-0.53,3.82-1.63c0.01-0.01,0.02-0.02,0.02-0.03c0.36-0.44,0.77-0.83,1.2-1.24c0.29-0.28,0.59-0.57,0.88-0.87    c1.33-1.38,1.33-3.13-0.01-4.47l-3.75-3.74c-0.64-0.66-1.4-1.01-2.2-1.01s-1.57,0.35-2.22,1l-2.23,2.23    c-0.21-0.12-0.42-0.22-0.62-0.32c-0.25-0.12-0.48-0.24-0.69-0.37c-2.03-1.29-3.88-2.97-5.65-5.12c-0.89-1.13-1.49-2.07-1.91-3.03    c0.59-0.53,1.14-1.08,1.67-1.62c0.19-0.19,0.38-0.39,0.57-0.58c0.67-0.67,1.04-1.45,1.04-2.24s-0.36-1.57-1.04-2.24l-1.86-1.85    C9.89,2.64,9.69,2.42,9.47,2.21C9.06,1.78,8.63,1.35,8.21,0.96C7.56,0.33,6.81,0,6.01,0C5.22,0,4.46,0.33,3.79,0.96L1.46,3.29    C0.61,4.13,0.13,5.16,0.03,6.35c-0.12,1.49,0.16,3.06,0.87,4.97C1.99,14.27,3.63,17.01,6.08,19.94z M1.55,6.48    c0.07-0.83,0.39-1.52,0.99-2.11l2.32-2.31C5.22,1.7,5.62,1.52,6.01,1.52c0.38,0,0.77,0.18,1.12,0.54    c0.42,0.39,0.81,0.79,1.24,1.22C8.58,3.5,8.8,3.72,9.02,3.94l1.86,1.85c0.39,0.39,0.59,0.78,0.59,1.16s-0.2,0.78-0.59,1.16    c-0.19,0.19-0.39,0.39-0.58,0.58c-0.58,0.58-1.12,1.14-1.72,1.67c-0.01,0.01-0.02,0.02-0.03,0.03c-0.52,0.52-0.44,1.01-0.31,1.38    c0.01,0.02,0.01,0.03,0.02,0.05c0.48,1.15,1.15,2.24,2.19,3.55c1.87,2.3,3.84,4.08,6.02,5.46c0.27,0.17,0.56,0.31,0.82,0.45    c0.25,0.12,0.48,0.24,0.69,0.37c0.02,0.01,0.04,0.02,0.07,0.04c0.21,0.11,0.41,0.16,0.61,0.16c0.5,0,0.82-0.32,0.93-0.42    l2.33-2.32c0.36-0.36,0.76-0.55,1.14-0.55c0.47,0,0.86,0.29,1.1,0.55l3.76,3.74c0.75,0.75,0.74,1.55-0.02,2.34    c-0.26,0.28-0.54,0.55-0.83,0.83c-0.44,0.42-0.89,0.86-1.3,1.35c-0.72,0.77-1.57,1.13-2.68,1.13c-0.11,0-0.22-0.01-0.32-0.01    c-2.05-0.13-3.95-0.93-5.38-1.6c-3.88-1.87-7.29-4.53-10.11-7.89c-2.33-2.79-3.89-5.39-4.93-8.17C1.69,9.1,1.45,7.73,1.55,6.48z"/>
	</g>
</g>
</svg>