<svg xmlns="http://www.w3.org/2000/svg" xmlns:xlink="http://www.w3.org/1999/xlink" version="1.1" id="레이어_1" x="0px" y="0px" viewBox="0 0 200 70.63" style="enable-background:new 0 0 200 70.63;" xml:space="preserve">
<style type="text/css">
	.st0{fill:#FFFFFF;}
</style>
<g>
	<g>
		<path class="st0" d="M23.49,27.81c0.27,0.65,0.29,1.17,0.07,1.57s-0.66,0.59-1.32,0.59H16.7c-0.65,0-1.25-0.19-1.81-0.57    c-0.55-0.38-0.96-0.9-1.23-1.55L9.89,19.1h-0.3v8.5c0,0.72-0.19,1.29-0.57,1.72c-0.38,0.43-0.9,0.64-1.55,0.64h-5.2    c-0.65,0-1.17-0.21-1.55-0.64c-0.38-0.43-0.57-1-0.57-1.72V2.36c0-0.72,0.19-1.29,0.57-1.72C1.09,0.21,1.61,0,2.26,0h5.2    c0.65,0,1.17,0.21,1.55,0.64c0.38,0.43,0.57,1,0.57,1.72v8.5h0.3l3.27-8.67c0.25-0.65,0.64-1.18,1.16-1.59    C14.85,0.2,15.44,0,16.1,0h5.53c0.65,0,1.1,0.2,1.33,0.61c0.24,0.41,0.23,0.93-0.02,1.59l-4.66,12.52L23.49,27.81z"/>
		<path class="st0" d="M34.89,27.6c0,0.72-0.19,1.29-0.57,1.72c-0.38,0.43-0.9,0.64-1.55,0.64h-6.11c-0.65,0-1.17-0.21-1.55-0.64    c-0.38-0.43-0.57-1-0.57-1.72V2.36c0-0.72,0.19-1.29,0.57-1.72C25.49,0.21,26.01,0,26.66,0h6.11c0.65,0,1.17,0.21,1.55,0.64    c0.38,0.43,0.57,1,0.57,1.72V27.6z"/>
		<path class="st0" d="M65.13,27.6c0,0.72-0.2,1.29-0.59,1.72c-0.39,0.43-0.91,0.64-1.54,0.64h-3.71c-0.65,0-1.17-0.21-1.55-0.64    s-0.57-1-0.57-1.72V16.03h-0.24l-1.62,11.61c-0.09,0.7-0.35,1.26-0.79,1.69c-0.44,0.43-0.98,0.64-1.64,0.64H49.4    c-0.65,0-1.2-0.21-1.64-0.64c-0.44-0.43-0.7-0.99-0.79-1.69l-1.59-11.61h-0.27V27.6c0,0.72-0.19,1.29-0.57,1.72    c-0.38,0.43-0.9,0.64-1.55,0.64h-3.68c-0.65,0-1.17-0.21-1.55-0.64c-0.38-0.43-0.57-1-0.57-1.72V2.36c0-0.72,0.19-1.29,0.57-1.72    C38.14,0.21,38.66,0,39.31,0h7.8c0.65,0,1.19,0.21,1.62,0.64c0.43,0.43,0.67,1,0.74,1.72l1.55,15.49h0.24l1.55-15.49    c0.09-0.72,0.34-1.29,0.76-1.72C53.99,0.21,54.52,0,55.17,0H63c0.63,0,1.14,0.21,1.54,0.64c0.39,0.43,0.59,1,0.59,1.72V27.6z"/>
		<path class="st0" d="M0,62.33c0-0.72,0.19-1.29,0.57-1.72c0.38-0.43,0.9-0.64,1.55-0.64h4.96c0.52,0,0.95,0.18,1.3,0.54    c0.35,0.36,0.66,0.97,0.93,1.82c0.16,0.47,0.49,0.73,1.01,0.78h1.38c0.43,0,0.73-0.14,0.89-0.42c0.17-0.28,0.25-0.68,0.25-1.2    v-0.03c0-0.36-0.09-0.7-0.27-1.01c-0.18-0.31-0.45-0.54-0.81-0.68l-8-3.34c-1.15-0.45-2.06-1.17-2.75-2.16    C0.34,53.27,0,52,0,50.45v-2.9c0-2.38,0.6-4.19,1.79-5.4c1.19-1.21,2.83-1.82,4.93-1.82h8.6c2.11,0,3.76,0.61,4.94,1.82    c1.18,1.21,1.77,3.02,1.77,5.4v1.42c0,0.72-0.19,1.29-0.57,1.72c-0.38,0.43-0.9,0.64-1.55,0.64h-4.93c-1.24,0-1.96-0.79-2.16-2.36    c-0.11-0.74-0.48-1.11-1.11-1.11h-1.38c-0.41,0-0.69,0.14-0.86,0.42c-0.17,0.28-0.25,0.68-0.25,1.2v0.03c0,1.1,0.42,1.8,1.25,2.09    l7.8,2.94c0.61,0.23,1.14,0.54,1.6,0.93c0.46,0.39,0.85,0.84,1.18,1.33c0.33,0.5,0.57,1.03,0.73,1.6c0.16,0.57,0.24,1.14,0.24,1.7    l0.03,3.31c0,2.39-0.59,4.19-1.77,5.4c-1.18,1.21-2.83,1.82-4.94,1.82h-8.6c-2.09,0-3.73-0.61-4.93-1.82C0.6,67.59,0,65.79,0,63.4    V62.33z"/>
		<path class="st0" d="M24.16,42.86c0-0.72,0.19-1.29,0.57-1.72c0.38-0.43,0.9-0.64,1.55-0.64h5.4c0.65,0,1.15,0.21,1.48,0.64    c0.34,0.43,0.55,1,0.64,1.72c0.38,2.99,0.58,6.13,0.59,9.41c0.01,3.29-0.23,6.67-0.73,10.16h3.24c0.43-3.53,0.64-6.87,0.64-10.02    c0-3.15-0.21-6.33-0.64-9.55c-0.09-0.72,0.08-1.29,0.51-1.72c0.43-0.43,0.97-0.64,1.62-0.64h5.53c0.65,0,1.17,0.21,1.55,0.64    c0.38,0.43,0.57,1,0.57,1.72V63.4c0,2.39-0.59,4.19-1.77,5.4c-1.18,1.21-2.83,1.82-4.94,1.82h-9.11c-2.11,0-3.76-0.61-4.94-1.82    c-1.18-1.21-1.77-3.01-1.77-5.4V42.86z"/>
		<path class="st0" d="M70.83,68.1c0,0.72-0.2,1.29-0.59,1.72c-0.39,0.43-0.91,0.64-1.54,0.64h-3.58c-0.63,0-1.21-0.2-1.75-0.61    c-0.54-0.41-0.93-0.93-1.18-1.59l-4.42-12.08H57.5V68.1c0,0.72-0.19,1.29-0.57,1.72c-0.38,0.43-0.9,0.64-1.55,0.64h-4.29    c-0.65,0-1.17-0.21-1.55-0.64c-0.38-0.43-0.57-1-0.57-1.72V42.86c0-0.72,0.19-1.29,0.57-1.72c0.38-0.43,0.9-0.64,1.55-0.64h3.54    c0.65,0,1.24,0.2,1.77,0.61c0.53,0.41,0.92,0.93,1.16,1.59l4.45,12.08h0.24V42.86c0-0.72,0.19-1.29,0.57-1.72    c0.38-0.43,0.9-0.64,1.55-0.64h4.32c0.63,0,1.14,0.21,1.54,0.64c0.39,0.43,0.59,1,0.59,1.72V68.1z"/>
		<path class="st0" d="M95.02,48.46c0,0.72-0.19,1.29-0.57,1.72c-0.38,0.43-0.9,0.64-1.55,0.64h-4.55c-0.36,0-0.64-0.11-0.84-0.32    c-0.2-0.21-0.39-0.46-0.57-0.74c-0.18-0.28-0.37-0.57-0.56-0.86c-0.19-0.29-0.44-0.51-0.76-0.64c-0.07-0.02-0.13-0.04-0.19-0.05    c-0.06-0.01-0.13-0.02-0.22-0.02h-2.06c-0.41,0-0.69,0.14-0.86,0.42c-0.17,0.28-0.25,0.68-0.25,1.2v11.34    c0,0.52,0.08,0.92,0.25,1.2c0.17,0.28,0.46,0.42,0.86,0.42h1.72c0.74-0.02,1.11-0.56,1.11-1.62v-2.02h-0.37    c-0.63,0-1.14-0.21-1.54-0.64c-0.39-0.43-0.59-1-0.59-1.72v-1.79c0-0.72,0.2-1.29,0.59-1.72c0.39-0.43,0.91-0.64,1.54-0.64h7.29    c0.65,0,1.17,0.21,1.55,0.64c0.38,0.43,0.57,1,0.57,1.72v8.44c0,2.39-0.59,4.19-1.77,5.4c-1.18,1.21-2.83,1.82-4.94,1.82h-8.6    c-2.09,0-3.73-0.61-4.93-1.82c-1.19-1.21-1.79-3.01-1.79-5.4V47.55c0-2.38,0.6-4.19,1.79-5.4c1.19-1.21,2.83-1.82,4.93-1.82h8.6    c2.11,0,3.76,0.61,4.94,1.82c1.18,1.21,1.77,3.02,1.77,5.4V48.46z"/>
		<path class="st0" d="M120.57,68.1c0,0.72-0.2,1.29-0.59,1.72c-0.39,0.43-0.91,0.64-1.54,0.64h-5.53c-0.65,0-1.17-0.21-1.55-0.64    c-0.38-0.43-0.57-1-0.57-1.72v-7.96h-3.85v7.96c0,0.72-0.19,1.29-0.57,1.72c-0.38,0.43-0.9,0.64-1.55,0.64h-5.5    c-0.65,0-1.17-0.21-1.55-0.64c-0.38-0.43-0.57-1-0.57-1.72V42.86c0-0.72,0.19-1.29,0.57-1.72c0.38-0.43,0.9-0.64,1.55-0.64h5.5    c0.65,0,1.17,0.21,1.55,0.64c0.38,0.43,0.57,1,0.57,1.72v7.76h3.85v-7.76c0-0.72,0.19-1.29,0.57-1.72    c0.38-0.43,0.9-0.64,1.55-0.64h5.53c0.63,0,1.14,0.21,1.54,0.64c0.39,0.43,0.59,1,0.59,1.72V68.1z"/>
		<path class="st0" d="M150.5,68.1c-0.05,0.72-0.28,1.29-0.69,1.72c-0.42,0.43-0.94,0.64-1.57,0.64h-7.53    c-0.65,0-1.19-0.21-1.6-0.64c-0.42-0.43-0.65-1-0.69-1.72l-1.01-13.8h-0.24l-1.01,13.8c-0.05,0.72-0.28,1.29-0.69,1.72    c-0.42,0.43-0.95,0.64-1.6,0.64h-7.52c-0.63,0-1.15-0.21-1.57-0.64c-0.42-0.43-0.65-1-0.69-1.72l-1.82-25.24    c-0.05-0.72,0.11-1.29,0.47-1.72c0.36-0.43,0.87-0.64,1.52-0.64h3.98c0.65,0,1.18,0.21,1.59,0.64c0.41,0.43,0.63,1,0.68,1.72    l1.08,18.32h0.24l1.18-18.32c0.04-0.72,0.27-1.29,0.67-1.72c0.41-0.43,0.93-0.64,1.59-0.64h4.08c0.65,0,1.18,0.21,1.59,0.64    c0.41,0.43,0.63,1,0.68,1.72l1.15,18.32h0.27l1.08-18.32c0.05-0.72,0.27-1.29,0.68-1.72c0.41-0.43,0.93-0.64,1.59-0.64h3.98    c0.65,0,1.16,0.21,1.52,0.64c0.36,0.43,0.52,1,0.47,1.72L150.5,68.1z"/>
		<path class="st0" d="M176.58,68.13c0.11,0.7,0,1.26-0.32,1.69c-0.33,0.43-0.82,0.64-1.47,0.64h-4.93c-0.65,0-1.19-0.21-1.62-0.64    c-0.43-0.43-0.7-0.99-0.81-1.69L167,64.65h-4.89l-0.41,3.48c-0.09,0.7-0.35,1.26-0.78,1.69c-0.43,0.43-0.97,0.64-1.62,0.64h-4.93    c-0.65,0-1.14-0.21-1.47-0.64c-0.33-0.43-0.43-0.99-0.32-1.69l3.71-25.31c0.11-0.7,0.39-1.26,0.84-1.69    c0.45-0.43,1-0.64,1.65-0.64h11.57c0.65,0,1.2,0.21,1.64,0.64c0.44,0.43,0.71,0.99,0.83,1.69L176.58,68.13z M166.05,56.83    l-1.01-8.44h-0.91l-1.05,8.44H166.05z"/>
		<path class="st0" d="M200,68.1c0,0.72-0.2,1.29-0.59,1.72c-0.39,0.43-0.91,0.64-1.54,0.64h-3.58c-0.63,0-1.21-0.2-1.75-0.61    s-0.93-0.93-1.18-1.59l-4.42-12.08h-0.27V68.1c0,0.72-0.19,1.29-0.58,1.72c-0.38,0.43-0.9,0.64-1.55,0.64h-4.29    c-0.65,0-1.17-0.21-1.55-0.64c-0.38-0.43-0.57-1-0.57-1.72V42.86c0-0.72,0.19-1.29,0.57-1.72c0.38-0.43,0.9-0.64,1.55-0.64h3.54    c0.65,0,1.24,0.2,1.77,0.61s0.92,0.93,1.16,1.59l4.46,12.08h0.24V42.86c0-0.72,0.19-1.29,0.57-1.72c0.38-0.43,0.9-0.64,1.55-0.64    h4.32c0.63,0,1.14,0.21,1.54,0.64c0.39,0.43,0.59,1,0.59,1.72V68.1z"/>
	</g>
</g>
</svg>