<svg width="642.4" height="75.005" viewBox="0 0 642.4 75.005" xmlns="http://www.w3.org/2000/svg"><g id="svgGroup" stroke-linecap="round" fill-rule="evenodd" font-size="9pt" stroke="#ffffff" stroke-width="0.25mm" fill="#ffffff" style="stroke:#ffffff;stroke-width:0.25mm;fill:#ffffff"><path d="M 39.6 56.905 L 24 56.905 L 24 75.005 L 0 75.005 L 0 0.005 L 37.8 0.005 A 34.374 34.374 0 0 1 48.322 1.476 Q 63.6 6.389 63.6 27.705 A 55.078 55.078 0 0 1 63.131 35.017 A 46.388 46.388 0 0 1 62.4 39.105 A 26.934 26.934 0 0 1 60.393 44.922 A 22.969 22.969 0 0 1 58.35 48.355 Q 55.5 52.305 50.95 54.605 A 19.909 19.909 0 0 1 46.19 56.255 Q 43.957 56.742 41.367 56.864 A 37.647 37.647 0 0 1 39.6 56.905 Z M 29.5 19.205 L 24 19.205 L 24 37.705 L 29.5 37.705 A 34.649 34.649 0 0 0 31.547 37.648 Q 33.62 37.525 34.959 37.132 A 6.487 6.487 0 0 0 35.85 36.805 Q 37.8 35.905 37.8 32.605 L 37.8 24.205 A 8.07 8.07 0 0 0 37.686 22.789 Q 37.551 22.038 37.26 21.473 A 2.944 2.944 0 0 0 35.85 20.105 Q 34.256 19.369 31.024 19.234 A 36.791 36.791 0 0 0 29.5 19.205 Z" id="0" vector-effect="non-scaling-stroke"/><path d="M 88.7 75.005 L 91.4 63.105 L 111.2 63.105 L 114 75.005 L 139.3 75.005 L 119.9 0.005 L 82.8 0.005 L 63.4 75.005 L 88.7 75.005 Z M 100.7 23.005 L 102 23.005 L 106.8 44.005 L 95.8 44.005 L 100.7 23.005 Z" id="1" vector-effect="non-scaling-stroke"/><path d="M 196.3 50.005 L 209.3 75.005 L 182.9 75.005 L 173.1 52.705 L 167.9 52.705 L 167.9 75.005 L 143.9 75.005 L 143.9 0.005 L 181.7 0.005 A 36.376 36.376 0 0 1 191.988 1.331 Q 207.5 5.912 207.5 26.305 Q 207.5 36.276 204.063 42.472 A 18.097 18.097 0 0 1 196.3 50.005 Z M 173.4 19.205 L 167.9 19.205 L 167.9 34.205 L 173.4 34.205 A 34.649 34.649 0 0 0 175.447 34.148 Q 177.52 34.025 178.859 33.632 A 6.487 6.487 0 0 0 179.75 33.305 A 3.031 3.031 0 0 0 181.327 31.564 Q 181.554 30.979 181.643 30.231 A 8.723 8.723 0 0 0 181.7 29.205 L 181.7 24.205 A 8.07 8.07 0 0 0 181.586 22.789 Q 181.451 22.038 181.16 21.473 A 2.944 2.944 0 0 0 179.75 20.105 Q 178.156 19.369 174.924 19.234 A 36.791 36.791 0 0 0 173.4 19.205 Z" id="2" vector-effect="non-scaling-stroke"/><path d="M 242.2 42.405 L 241.7 42.405 L 241.7 75.005 L 217.7 75.005 L 217.7 0.005 L 241.7 0.005 L 241.7 30.605 L 242.2 30.605 Q 242.3 28.805 242.6 27.355 A 14.112 14.112 0 0 1 242.947 26.002 A 10.385 10.385 0 0 1 243.4 24.805 L 255.1 0.005 L 281.1 0.005 L 263.1 36.805 L 281.7 75.005 L 255.7 75.005 L 243.4 48.105 A 10.942 10.942 0 0 1 242.901 46.772 A 14.144 14.144 0 0 1 242.6 45.605 Q 242.319 44.295 242.214 42.635 A 28.691 28.691 0 0 1 242.2 42.405 Z" id="3" vector-effect="non-scaling-stroke"/><path d="M 304 75.005 L 285.3 75.005 L 282.9 55.805 L 292.9 55.805 A 17.468 17.468 0 0 0 294.507 55.736 Q 296.087 55.59 297.037 55.128 A 3.159 3.159 0 0 0 297.7 54.705 A 2.962 2.962 0 0 0 298.479 53.285 Q 298.592 52.823 298.6 52.278 A 5.604 5.604 0 0 0 298.6 52.205 L 298.6 19.205 L 288.7 19.205 L 288.7 0.005 L 322.6 0.005 L 322.6 55.205 A 32.23 32.23 0 0 1 322.142 60.828 Q 321.125 66.557 317.85 70.005 Q 313.507 74.576 305.528 74.968 A 31.159 31.159 0 0 1 304 75.005 Z" id="4" vector-effect="non-scaling-stroke"/><path d="M 332.8 75.005 L 356.8 75.005 L 356.8 0.005 L 332.8 0.005 L 332.8 75.005 Z" id="5" vector-effect="non-scaling-stroke"/><path d="M 435.4 0.005 L 435.4 75.005 L 412.8 75.005 L 394.5 48.405 Q 394 47.705 393.7 46.305 Q 393.407 44.936 393.305 42.706 A 43.87 43.87 0 0 1 393.3 42.605 L 392.8 42.605 L 392.8 75.005 L 368.8 75.005 L 368.8 0.005 L 391.4 0.005 L 409.7 26.605 Q 410.2 27.305 410.5 28.705 Q 410.793 30.074 410.895 32.303 A 43.87 43.87 0 0 1 410.9 32.405 L 411.4 32.405 L 411.4 0.005 L 435.4 0.005 Z" id="6" vector-effect="non-scaling-stroke"/><path d="M 489.4 75.005 L 513.4 75.005 L 513.4 0.005 L 489.4 0.005 L 489.4 26.505 L 471.4 26.505 L 471.4 0.005 L 447.4 0.005 L 447.4 75.005 L 471.4 75.005 L 471.4 48.505 L 489.4 48.505 L 489.4 75.005 Z" id="7" vector-effect="non-scaling-stroke"/><path d="M 573.4 46.705 L 573.4 29.305 L 549.4 29.305 L 549.4 19.205 L 575.2 19.205 L 578.2 0.005 L 525.4 0.005 L 525.4 75.005 L 578.8 75.005 L 578.8 55.805 L 549.4 55.805 L 549.4 46.705 L 573.4 46.705 Z" id="8" vector-effect="non-scaling-stroke"/><path d="M 637 46.705 L 637 29.305 L 613 29.305 L 613 19.205 L 638.8 19.205 L 641.8 0.005 L 589 0.005 L 589 75.005 L 642.4 75.005 L 642.4 55.805 L 613 55.805 L 613 46.705 L 637 46.705 Z" id="9" vector-effect="non-scaling-stroke"/></g></svg>