<svg xmlns="http://www.w3.org/2000/svg" xmlns:xlink="http://www.w3.org/1999/xlink" version="1.1" id="레이어_1" x="0px" y="0px" viewBox="0 0 30 30" style="enable-background:new 0 0 30 30;" xml:space="preserve">
<style type="text/css">
	.st0{fill:#FFFFFF;}
</style>
<path class="st0" d="M27.54,4.52H2.46C1.1,4.52,0,5.62,0,6.97v16.05c0,1.35,1.1,2.46,2.46,2.46h25.09c1.35,0,2.46-1.1,2.46-2.46  V6.97C30,5.62,28.9,4.52,27.54,4.52z M2.87,5.86h24.27h0.53l-0.37,0.37L15.85,17.72c-0.21,0.21-0.52,0.33-0.85,0.33  s-0.64-0.12-0.85-0.33L2.71,6.24L2.34,5.86H2.87z M1.35,23.23V22.7V7.3V6.77l0.37,0.37l7.67,7.7L9.55,15l-0.15,0.15l-7.67,7.7  L1.35,23.23z M27.13,24.14H2.87H2.34l0.37-0.37l7.63-7.65l0.15-0.16l0.15,0.16l2.55,2.56c0.46,0.46,1.11,0.72,1.8,0.72  s1.34-0.26,1.8-0.72l2.55-2.56l0.15-0.16l0.15,0.16l7.63,7.65l0.37,0.37H27.13z M28.65,7.3v15.4v0.53l-0.37-0.37l-7.67-7.7L20.45,15  l0.15-0.15l7.67-7.7l0.37-0.37V7.3z"/>
</svg>